<svg width="28" height="20" viewBox="0 0 28 20" fill="none" xmlns="http://www.w3.org/2000/svg">
<path d="M23.0338 1.66081C21.3723 0.898422 19.5905 0.336727 17.7276 0.0150214C17.6936 0.00881257 17.6598 0.0243287 17.6423 0.0553618C17.4131 0.462923 17.1593 0.99462 16.9816 1.41253C14.9778 1.11255 12.9844 1.11255 11.0218 1.41253C10.844 0.98533 10.581 0.462923 10.3508 0.0553618C10.3333 0.0253642 10.2994 0.00984798 10.2655 0.0150214C8.40358 0.335699 6.62182 0.897393 4.95924 1.66081C4.94485 1.66702 4.93251 1.67737 4.92433 1.69081C1.54471 6.73989 0.618886 11.6649 1.07306 16.5288C1.07512 16.5526 1.08848 16.5753 1.10697 16.5898C3.33675 18.2273 5.49667 19.2214 7.61648 19.8803C7.65041 19.8907 7.68635 19.8783 7.70794 19.8503C8.20938 19.1656 8.65637 18.4435 9.03963 17.6842C9.06224 17.6398 9.04065 17.587 8.99443 17.5694C8.28542 17.3005 7.61031 16.9725 6.9609 16.6002C6.90953 16.5702 6.90542 16.4967 6.95268 16.4615C7.08934 16.3591 7.22603 16.2526 7.35652 16.145C7.38013 16.1253 7.41303 16.1212 7.44079 16.1336C11.7071 18.0815 16.326 18.0815 20.542 16.1336C20.5697 16.1202 20.6026 16.1243 20.6273 16.144C20.7578 16.2515 20.8945 16.3591 21.0322 16.4615C21.0794 16.4967 21.0763 16.5702 21.025 16.6002C20.3756 16.9798 19.7004 17.3005 18.9904 17.5684C18.9442 17.586 18.9236 17.6398 18.9462 17.6842C19.3377 18.4425 19.7847 19.1645 20.2769 19.8493C20.2975 19.8783 20.3344 19.8907 20.3684 19.8803C22.4984 19.2214 24.6583 18.2273 26.8881 16.5898C26.9077 16.5753 26.92 16.5536 26.9221 16.5298C27.4656 10.9066 26.0116 6.022 23.0677 1.69184C23.0605 1.67737 23.0482 1.66702 23.0338 1.66081ZM9.67674 13.5672C8.39227 13.5672 7.33391 12.3879 7.33391 10.9397C7.33391 9.49149 8.37175 8.31225 9.67674 8.31225C10.992 8.31225 12.0401 9.50184 12.0195 10.9397C12.0195 12.3879 10.9817 13.5672 9.67674 13.5672ZM18.3389 13.5672C17.0545 13.5672 15.9961 12.3879 15.9961 10.9397C15.9961 9.49149 17.0339 8.31225 18.3389 8.31225C19.6542 8.31225 20.7023 9.50184 20.6818 10.9397C20.6818 12.3879 19.6542 13.5672 18.3389 13.5672Z" fill="#7289da"/>
</svg>
