<svg width="60" height="60" viewBox="0 0 60 60" fill="none" xmlns="http://www.w3.org/2000/svg">
<rect width="60.0005" height="60.0005" rx="12.5001" fill="#3C69F7"/>
<path fill-rule="evenodd" clip-rule="evenodd" d="M20.7093 10.0002H31.057L23.0034 27.0672C22.2987 28.5607 21.9463 29.3074 22.0531 29.8779C22.147 30.3797 22.4822 30.7876 23.0105 31.0433C23.6112 31.3339 24.5771 31.3339 26.5088 31.3339H26.5088H33.4073C33.8902 31.3339 34.1317 31.3339 34.2819 31.4066C34.4139 31.4705 34.4977 31.5725 34.5212 31.698C34.5479 31.8406 34.4598 32.0273 34.2836 32.4006L31.0119 39.3341H23.4236C17.6283 39.3341 14.7307 39.3341 12.9287 38.4621C11.3436 37.6951 10.3381 36.4713 10.0564 34.9659C9.73608 33.2546 10.7932 31.0144 12.9074 26.5338L20.7093 10.0002ZM39.2911 50.0004L28.9434 50.0004L36.9969 32.9334C37.7017 31.4399 38.054 30.6931 37.9473 30.1227C37.8534 29.6209 37.5182 29.2129 36.9898 28.9573C36.3892 28.6666 35.4233 28.6666 33.4915 28.6666H26.5931C26.1102 28.6666 25.8687 28.6666 25.7185 28.5939C25.5864 28.53 25.5026 28.428 25.4792 28.3026C25.4525 28.16 25.5406 27.9733 25.7167 27.5999L28.9885 20.6665L36.5768 20.6665C42.372 20.6665 45.2696 20.6665 47.0717 21.5384C48.6568 22.3054 49.6623 23.5293 49.944 25.0346C50.2643 26.7459 49.2072 28.9862 47.0929 33.4667L39.2911 50.0004Z" fill="white"/>
</svg>
