<svg width="12" height="12" viewBox="0 0 12 12" fill="none" xmlns="http://www.w3.org/2000/svg">
<g clip-path="url(#clip0_2286_11731)">
<path fill-rule="evenodd" clip-rule="evenodd" d="M1.96407 0C1.15501 0 0.693178 0.923654 1.17861 1.5709L4.05862 5.4109C4.32044 5.76 4.32044 6.24001 4.05862 6.58908L1.17861 10.4291C0.693178 11.0763 1.15501 12 1.96407 12H10.0368C10.8459 12 11.3077 11.0763 10.8223 10.4291L7.94226 6.58908C7.68041 6.24001 7.68041 5.76 7.94223 5.4109L10.8222 1.57091C11.3077 0.923658 10.8459 0 10.0368 0H1.96407ZM6.25599 7.51945C6.12498 7.35568 5.8759 7.35568 5.74486 7.51945L4.02579 9.66828C3.85437 9.88255 4.00694 10.2 4.28136 10.2H7.71949C7.9939 10.2 8.14648 9.88255 7.97505 9.66828L6.25599 7.51945Z" fill="#FFF174"/>
</g>
<defs>
<clipPath id="clip0_2286_11731">
<rect width="12" height="12" fill="white"/>
</clipPath>
</defs>
</svg>
