<svg width="26" height="21" viewBox="0 0 26 21" fill="none" xmlns="http://www.w3.org/2000/svg">
<path fill-rule="evenodd" clip-rule="evenodd" d="M8.16727 21C17.9784 21 23.3469 12.9183 23.3469 5.92175C23.3469 5.69439 23.3469 5.46703 23.3365 5.23967C24.377 4.49557 25.2821 3.55512 26 2.49065C25.0428 2.91437 24.0128 3.19341 22.9308 3.32776C24.0336 2.67667 24.8764 1.63287 25.2821 0.392717C24.2521 1.00246 23.1076 1.43652 21.8904 1.67421C20.9124 0.640748 19.5286 0 17.9992 0C15.0548 0 12.6619 2.37697 12.6619 5.30167C12.6619 5.71506 12.7139 6.11811 12.7971 6.51083C8.36495 6.2938 4.43217 4.1752 1.79992 0.971457C1.34214 1.75689 1.08203 2.66634 1.08203 3.6378C1.08203 5.47736 2.02881 7.0999 3.45418 8.05069C2.58023 8.01968 1.7583 7.78199 1.04042 7.38927C1.04042 7.40994 1.04042 7.43061 1.04042 7.46161C1.04042 10.0246 2.88195 12.1742 5.31653 12.6599C4.86915 12.784 4.40096 12.846 3.91196 12.846C3.56863 12.846 3.23569 12.815 2.91317 12.753C3.58944 14.8612 5.56623 16.3907 7.89676 16.4321C6.06563 17.8583 3.76631 18.7057 1.26931 18.7057C0.842737 18.7057 0.416166 18.685 0 18.6334C2.35134 20.1216 5.16046 21 8.16727 21Z" fill="#00acee"/>
</svg>
